<svg xmlns="http://www.w3.org/2000/svg" viewBox="0 0 25.5 24">
  <g id="Group_223326" data-name="Group 223326" transform="translate(-1216.25 -107)">
    <rect id="Rectangle_24737" data-name="Rectangle 24737" width="24" height="24" transform="translate(1217 107)" fill="none" opacity="0"/>
    <g id="Hide" transform="translate(1216.25 108.019)">
      <path id="Stroke_1" data-name="Stroke 1" d="M1.2,7A4.052,4.052,0,0,1,0,4.107,4.1,4.1,0,0,1,7,1.2" transform="translate(8.645 6.876)" fill="none" stroke="currentColor" stroke-linecap="round" stroke-linejoin="round" stroke-width="1.5"/>
      <path id="Stroke_3" data-name="Stroke 3" d="M3.291,0A4.1,4.1,0,0,1,0,3.3" transform="translate(13.487 11.711)" fill="none" stroke="currentColor" stroke-linecap="round" stroke-linejoin="round" stroke-width="1.5"/>
      <path id="Stroke_5" data-name="Stroke 5" d="M5.066,16.4A17.423,17.423,0,0,1,0,9.474a17.632,17.632,0,0,1,5.1-6.96A11.071,11.071,0,0,1,12,0a11.1,11.1,0,0,1,6.922,2.539" transform="translate(0.75 1.508)" fill="none" stroke="currentColor" stroke-linecap="round" stroke-linejoin="round" stroke-width="1.5"/>
      <path id="Stroke_7" data-name="Stroke 7" d="M12.947,0a19.925,19.925,0,0,1,2.338,4.081c-2.552,5.912-7.061,9.473-12,9.473A10.354,10.354,0,0,1,0,13.018" transform="translate(9.465 6.9)" fill="none" stroke="currentColor" stroke-linecap="round" stroke-linejoin="round" stroke-width="1.5"/>
      <path id="Stroke_9" data-name="Stroke 9" d="M20.464,0,0,20.464" transform="translate(2.518 0.75)" fill="none" stroke="currentColor" stroke-linecap="round" stroke-linejoin="round" stroke-width="1.5"/>
    </g>
  </g>
</svg>
