<svg xmlns="http://www.w3.org/2000/svg" viewBox="0 0 25.509 24.969">
  <g id="Group_224194" data-name="Group 224194" transform="translate(-1216.241 -106.409)">
    <rect id="Rectangle_24737" data-name="Rectangle 24737" width="24" height="24" transform="translate(1217 107)" fill="none" opacity="0"/>
    <g id="Edit" transform="translate(1217 107.371)">
      <path id="Stroke_1" data-name="Stroke 1" d="M0,.557H9.67" transform="translate(14.33 22.7)" fill="none" stroke="currentColor" stroke-linecap="round" stroke-linejoin="round" stroke-width="1.5"/>
      <path id="Stroke_3" data-name="Stroke 3" d="M13.04,1.06a2.993,2.993,0,0,1,4.155-.4l2.311,1.8a2.856,2.856,0,0,1,.96,3.978C20.42,6.5,7.749,22.353,7.749,22.353A2.265,2.265,0,0,1,6,23.2l-4.853.061L.058,18.63A2.172,2.172,0,0,1,.48,16.77Z" transform="translate(0 0)" fill="none" stroke="currentColor" stroke-linecap="round" stroke-linejoin="round" stroke-width="1.5"/>
      <path id="Stroke_5" data-name="Stroke 5" d="M0,0,7.27,5.583" transform="translate(10.694 4.001)" fill="none" stroke="currentColor" stroke-linecap="round" stroke-linejoin="round" stroke-width="1.5"/>
    </g>
  </g>
</svg>
