<svg xmlns="http://www.w3.org/2000/svg" viewBox="0 0 25 25.01">
  <g id="Group_224480" data-name="Group 224480" transform="translate(-1216.5 -106.5)">
    <rect id="Rectangle_24737" data-name="Rectangle 24737" width="24" height="24" transform="translate(1217 107)" fill="none" opacity="0"/>
    <g id="Filter" transform="translate(1217 107)">
      <path id="Stroke_1" data-name="Stroke 1" d="M2.087,0A2.1,2.1,0,0,0,0,2.121V3.369A3.4,3.4,0,0,0,.919,5.7l6.461,6.87,0,0a6.876,6.876,0,0,1,1.949,4.8v6.1a.53.53,0,0,0,.78.475l3.679-2a1.745,1.745,0,0,0,.9-1.533V17.349a6.87,6.87,0,0,1,1.928-4.783L23.082,5.7A3.4,3.4,0,0,0,24,3.369V2.121A2.1,2.1,0,0,0,21.915,0Z" transform="translate(0 0)" fill="none" stroke="currentColor" stroke-linecap="round" stroke-linejoin="round" stroke-width="1"/>
    </g>
  </g>
</svg>
