<svg xmlns="http://www.w3.org/2000/svg" viewBox="0 0 50 50">
  <g id="Group_223310" data-name="Group 223310" transform="translate(-1537 -767)">
    <rect id="Rectangle_24735" data-name="Rectangle 24735" width="50" height="50" transform="translate(1537 767)" fill="none" opacity="0"/>
    <g id="Paper_Plus" data-name="Paper Plus" transform="translate(1540.75 767)">
      <path id="Fill_3" data-name="Fill 3" d="M38.272,17.552c-1.129,0-2.624-.025-4.485-.025a8.341,8.341,0,0,1-8.273-8.34V1.148A1.141,1.141,0,0,0,24.383,0H11.159A11.223,11.223,0,0,0,0,11.272V38.21A11.731,11.731,0,0,0,11.674,50H31.363A11.19,11.19,0,0,0,42.5,38.755V18.677a1.134,1.134,0,0,0-1.134-1.145c-1.055.007-2.324.02-3.094.02" fill="#339dff" opacity="0.4"/>
      <path id="Fill_1" data-name="Fill 1" d="M2.053.369A1.193,1.193,0,0,0,0,1.2V7.8a5.066,5.066,0,0,0,5.04,5.04c1.745.02,4.165.025,6.22.02a1.192,1.192,0,0,0,.858-2.02C9.48,8.094,4.758,3.179,2.053.369" transform="translate(29.408 1.05)" fill="#339dff" opacity="0.4"/>
      <path id="Fill_6" data-name="Fill 6" d="M14.22,6.18H9.9V1.862a1.861,1.861,0,1,0-3.722,0V6.18H1.86a1.863,1.863,0,0,0,0,3.725H6.177V14.22a1.861,1.861,0,1,0,3.722,0V9.9h4.32a1.862,1.862,0,1,0,0-3.725" transform="translate(12.948 19.411)" fill="#339dff"/>
    </g>
  </g>
</svg>
