<svg xmlns="http://www.w3.org/2000/svg" viewBox="0 0 24 25.5">
  <g id="Group_224362" data-name="Group 224362" transform="translate(-1217 -106.25)">
    <rect id="Rectangle_24737" data-name="Rectangle 24737" width="24" height="24" transform="translate(1217 107)" fill="none" opacity="0"/>
    <g id="Delete" transform="translate(1217.249 106.249)">
      <path id="Stroke_1" data-name="Stroke 1" d="M18.411,0s-.7,8.738-1.113,12.418a2.9,2.9,0,0,1-3.059,2.82c-3.385.061-6.774.065-10.157-.006a2.872,2.872,0,0,1-2.97-2.8C.7,8.714,0,0,0,0" transform="translate(2.545 9.466)" fill="none" stroke="currentColor" stroke-linecap="round" stroke-linejoin="round" stroke-width="1.5"/>
      <path id="Stroke_3" data-name="Stroke 3" d="M22,.5H0" transform="translate(0.75 4.777)" fill="none" stroke="currentColor" stroke-linecap="round" stroke-linejoin="round" stroke-width="1.5"/>
      <path id="Stroke_5" data-name="Stroke 5" d="M13.522,4.527a2.138,2.138,0,0,1-2.1-1.718l-.315-1.578A1.66,1.66,0,0,0,9.507,0H4.015a1.66,1.66,0,0,0-1.6,1.231L2.1,2.809A2.138,2.138,0,0,1,0,4.527" transform="translate(4.989 0.751)" fill="none" stroke="currentColor" stroke-linecap="round" stroke-linejoin="round" stroke-width="1.5"/>
    </g>
  </g>
</svg>
